<svg width="335" height="320" viewBox="0 0 335 320" fill="none" xmlns="http://www.w3.org/2000/svg">
<path d="M22.9735 234.286V0M45.0635 234.286V0M67.1534 234.286V0M89.2434 234.286V0M111.333 234.286V0M133.423 234.286V0M155.513 234.286V0M177.603 234.286V0M155.513 246V11.7143M221.783 234.286V0M243.873 234.286V0M265.963 234.286V0M288.053 234.286V0M310.143 234.286V0M334 197.19H7.72466e-06M334 172.786H6.75907e-06M334 148.381H5.7935e-06M334 123.976H4.82791e-06M334 99.5714H3.86233e-06M334 75.1667H2.89674e-06M334 50.7619H1.93117e-06M334 26.3571H9.65587e-07M334 1.95235L0 1.95236" stroke="url(#paint0_linear_236_358)" stroke-opacity="0.05" stroke-dasharray="0.99 0.99"/>
<g clip-path="url(#clip0_236_358)">
<rect x="-71.5" y="191.5" width="224" height="48" rx="11.5" fill="url(#paint1_radial_236_358)"/>
<rect x="-71.5" y="191.5" width="224" height="48" rx="11.5" stroke="#262329"/>
<path d="M3.54588 221.21C2.54254 221.21 1.69088 220.988 0.990875 220.545C0.290875 220.102 -0.243458 219.486 -0.612125 218.697C-0.976125 217.908 -1.15812 216.996 -1.15812 215.96C-1.15812 214.924 -0.976125 214.012 -0.612125 213.223C-0.243458 212.434 0.290875 211.818 0.990875 211.375C1.69088 210.932 2.54254 210.71 3.54588 210.71C4.71254 210.71 5.67154 211.006 6.42288 211.599C7.17888 212.192 7.69921 212.99 7.98388 213.993L6.71688 214.329C6.51154 213.578 6.14521 212.985 5.61787 212.551C5.09054 212.117 4.39988 211.9 3.54588 211.9C2.79454 211.9 2.16921 212.07 1.66988 212.411C1.17054 212.752 0.794875 213.228 0.542875 213.839C0.290875 214.446 0.162542 215.153 0.157875 215.96C0.153208 216.763 0.276875 217.47 0.528875 218.081C0.780875 218.688 1.15888 219.164 1.66288 219.509C2.16688 219.85 2.79454 220.02 3.54588 220.02C4.39988 220.02 5.09054 219.803 5.61787 219.369C6.14521 218.93 6.51154 218.338 6.71688 217.591L7.98388 217.927C7.69921 218.926 7.17888 219.724 6.42288 220.321C5.67154 220.914 4.71254 221.21 3.54588 221.21ZM12.7391 221.21C11.9877 221.21 11.3391 221.04 10.7931 220.699C10.2517 220.358 9.83406 219.887 9.54006 219.285C9.24606 218.683 9.09906 217.992 9.09906 217.213C9.09906 216.42 9.2484 215.724 9.54706 215.127C9.84573 214.53 10.2681 214.065 10.8141 213.734C11.3601 213.398 12.0017 213.23 12.7391 213.23C13.4951 213.23 14.1461 213.4 14.6921 213.741C15.2381 214.077 15.6557 214.546 15.9451 215.148C16.2391 215.745 16.3861 216.434 16.3861 217.213C16.3861 218.002 16.2391 218.697 15.9451 219.299C15.6511 219.896 15.2311 220.365 14.6851 220.706C14.1391 221.042 13.4904 221.21 12.7391 221.21ZM12.7391 220.027C13.5231 220.027 14.1064 219.766 14.4891 219.243C14.8717 218.72 15.0631 218.044 15.0631 217.213C15.0631 216.359 14.8694 215.68 14.4821 215.176C14.0947 214.667 13.5137 214.413 12.7391 214.413C12.2117 214.413 11.7777 214.532 11.4371 214.77C11.0964 215.008 10.8421 215.337 10.6741 215.757C10.5061 216.177 10.4221 216.662 10.4221 217.213C10.4221 218.062 10.6181 218.744 11.0101 219.257C11.4021 219.77 11.9784 220.027 12.7391 220.027ZM20.8953 221.21C20.1906 221.21 19.5863 221.035 19.0823 220.685C18.5783 220.33 18.1886 219.852 17.9133 219.25C17.6426 218.648 17.5073 217.969 17.5073 217.213C17.5073 216.457 17.6426 215.778 17.9133 215.176C18.1886 214.574 18.5783 214.1 19.0823 213.755C19.5863 213.405 20.1883 213.23 20.8883 213.23C21.6023 213.23 22.2019 213.403 22.6873 213.748C23.1726 214.093 23.5389 214.567 23.7863 215.169C24.0383 215.771 24.1643 216.452 24.1643 217.213C24.1643 217.964 24.0383 218.643 23.7863 219.25C23.5389 219.852 23.1726 220.33 22.6873 220.685C22.2019 221.035 21.6046 221.21 20.8953 221.21ZM21.0493 220.069C21.5579 220.069 21.9756 219.948 22.3023 219.705C22.6289 219.458 22.8693 219.119 23.0233 218.69C23.1819 218.256 23.2613 217.764 23.2613 217.213C23.2613 216.653 23.1819 216.161 23.0233 215.736C22.8693 215.307 22.6313 214.973 22.3093 214.735C21.9873 214.492 21.5789 214.371 21.0843 214.371C20.5709 214.371 20.1463 214.497 19.8103 214.749C19.4789 215.001 19.2316 215.342 19.0683 215.771C18.9096 216.2 18.8303 216.681 18.8303 217.213C18.8303 217.75 18.9119 218.235 19.0753 218.669C19.2386 219.098 19.4836 219.439 19.8103 219.691C20.1416 219.943 20.5546 220.069 21.0493 220.069ZM23.2613 221V215.435H23.1213V210.92H24.3743V221H23.2613ZM26.4755 212.103V210.815H27.7215V212.103H26.4755ZM26.4755 221V213.44H27.7215V221H26.4755ZM35.2048 221V217.213C35.2048 216.854 35.1721 216.508 35.1068 216.177C35.0461 215.846 34.9365 215.549 34.7778 215.288C34.6238 215.022 34.4138 214.812 34.1478 214.658C33.8865 214.504 33.5551 214.427 33.1538 214.427C32.8411 214.427 32.5565 214.481 32.2998 214.588C32.0478 214.691 31.8308 214.849 31.6488 215.064C31.4668 215.279 31.3245 215.549 31.2218 215.876C31.1238 216.198 31.0748 216.578 31.0748 217.017L30.2558 216.765C30.2558 216.032 30.3865 215.405 30.6478 214.882C30.9138 214.355 31.2848 213.951 31.7608 213.671C32.2415 213.386 32.8061 213.244 33.4548 213.244C33.9448 213.244 34.3625 213.321 34.7078 213.475C35.0531 213.629 35.3401 213.834 35.5688 214.091C35.7975 214.343 35.9771 214.628 36.1078 214.945C36.2385 215.258 36.3295 215.577 36.3808 215.904C36.4368 216.226 36.4648 216.532 36.4648 216.821V221H35.2048ZM29.8148 221V213.44H30.9348V215.463H31.0748V221H29.8148ZM41.3437 224.57C40.947 224.57 40.5597 224.509 40.1817 224.388C39.8037 224.267 39.456 224.082 39.1387 223.835C38.826 223.592 38.5647 223.284 38.3547 222.911L39.4957 222.309C39.6824 222.678 39.946 222.946 40.2867 223.114C40.632 223.282 40.9867 223.366 41.3507 223.366C41.8314 223.366 42.2304 223.277 42.5477 223.1C42.865 222.927 43.0984 222.668 43.2477 222.323C43.4017 221.978 43.4764 221.548 43.4717 221.035V218.97H43.6187V213.44H44.7247V221.049C44.7247 221.254 44.7177 221.453 44.7037 221.644C44.6944 221.835 44.671 222.024 44.6337 222.211C44.5357 222.748 44.342 223.189 44.0527 223.534C43.7634 223.884 43.39 224.143 42.9327 224.311C42.4754 224.484 41.9457 224.57 41.3437 224.57ZM41.2527 221.21C40.548 221.21 39.9437 221.035 39.4397 220.685C38.9357 220.33 38.546 219.852 38.2707 219.25C38 218.648 37.8647 217.969 37.8647 217.213C37.8647 216.457 38 215.778 38.2707 215.176C38.546 214.574 38.9357 214.1 39.4397 213.755C39.9437 213.405 40.5457 213.23 41.2457 213.23C41.9597 213.23 42.5594 213.403 43.0447 213.748C43.53 214.093 43.8964 214.567 44.1437 215.169C44.3957 215.771 44.5217 216.452 44.5217 217.213C44.5217 217.964 44.3957 218.643 44.1437 219.25C43.8964 219.852 43.53 220.33 43.0447 220.685C42.5594 221.035 41.962 221.21 41.2527 221.21ZM41.4067 220.069C41.9154 220.069 42.333 219.948 42.6597 219.705C42.9864 219.458 43.2267 219.119 43.3807 218.69C43.5394 218.256 43.6187 217.764 43.6187 217.213C43.6187 216.653 43.5394 216.161 43.3807 215.736C43.2267 215.307 42.9887 214.973 42.6667 214.735C42.3447 214.492 41.9364 214.371 41.4417 214.371C40.9284 214.371 40.5037 214.497 40.1677 214.749C39.8364 215.001 39.589 215.342 39.4257 215.771C39.267 216.2 39.1877 216.681 39.1877 217.213C39.1877 217.75 39.2694 218.235 39.4327 218.669C39.596 219.098 39.841 219.439 40.1677 219.691C40.499 219.943 40.912 220.069 41.4067 220.069ZM52.758 221.21C52.198 221.21 51.6753 221.128 51.19 220.965C50.7046 220.802 50.2986 220.545 49.972 220.195C49.72 219.915 49.531 219.607 49.405 219.271C49.2836 218.93 49.216 218.571 49.202 218.193C49.202 217.824 49.2556 217.465 49.363 217.115C49.4703 216.76 49.6406 216.445 49.874 216.17C49.9953 216.021 50.1306 215.895 50.28 215.792C50.434 215.685 50.588 215.594 50.742 215.519C50.42 215.174 50.1726 214.849 50 214.546C49.832 214.243 49.748 213.876 49.748 213.447C49.748 212.901 49.888 212.409 50.168 211.97C50.4526 211.527 50.84 211.202 51.33 210.997C51.568 210.894 51.8106 210.824 52.058 210.787C52.31 210.745 52.555 210.724 52.793 210.724C53.1943 210.724 53.584 210.78 53.962 210.892C54.34 211.004 54.662 211.186 54.928 211.438C55.1053 211.587 55.257 211.76 55.383 211.956C55.509 212.147 55.607 212.348 55.677 212.558L54.459 212.873C54.3703 212.635 54.2233 212.434 54.018 212.271C53.8546 212.131 53.6633 212.035 53.444 211.984C53.2293 211.933 53.0123 211.907 52.793 211.907C52.429 211.907 52.1 211.977 51.806 212.117C51.5446 212.243 51.3486 212.42 51.218 212.649C51.0873 212.873 51.022 213.139 51.022 213.447C51.022 213.713 51.0663 213.932 51.155 214.105C51.2483 214.273 51.3766 214.453 51.54 214.644C51.638 214.747 51.7476 214.856 51.869 214.973C51.995 215.085 52.1233 215.202 52.254 215.323L55.222 218.081C55.236 217.964 55.2453 217.845 55.25 217.724C55.2546 217.603 55.257 217.486 55.257 217.374L55.25 215.981H56.391V217.619C56.391 217.95 56.3793 218.233 56.356 218.466C56.3373 218.699 56.3046 218.893 56.258 219.047L57.539 220.23L56.727 221.098L55.663 220.09C55.481 220.295 55.264 220.475 55.012 220.629C54.76 220.783 54.508 220.9 54.256 220.979C54.018 221.068 53.773 221.128 53.521 221.161C53.269 221.194 53.0146 221.21 52.758 221.21ZM52.786 220.013C53.0146 220.013 53.2223 219.999 53.409 219.971C53.5956 219.943 53.773 219.889 53.941 219.81C54.165 219.703 54.3376 219.6 54.459 219.502C54.5803 219.404 54.6806 219.313 54.76 219.229L51.687 216.415C51.519 216.471 51.3603 216.546 51.211 216.639C51.0663 216.732 50.9403 216.842 50.833 216.968C50.7116 217.117 50.6206 217.292 50.56 217.493C50.504 217.694 50.476 217.906 50.476 218.13C50.4806 218.368 50.5203 218.587 50.595 218.788C50.6696 218.989 50.7746 219.168 50.91 219.327C51.1153 219.565 51.393 219.74 51.743 219.852C52.093 219.959 52.4406 220.013 52.786 220.013ZM60.7859 221L64.1599 210.92H65.8959L69.2699 221H67.9749L64.8179 211.648H65.2099L62.0809 221H60.7859ZM62.4099 218.641V217.472H67.6459V218.641H62.4099ZM73.393 221.196C72.9076 221.196 72.49 221.119 72.14 220.965C71.7946 220.811 71.5076 220.606 71.279 220.349C71.0503 220.092 70.8706 219.808 70.74 219.495C70.6093 219.182 70.516 218.863 70.46 218.536C70.4086 218.209 70.383 217.904 70.383 217.619V213.44H71.643V217.227C71.643 217.582 71.6756 217.925 71.741 218.256C71.8063 218.587 71.916 218.886 72.07 219.152C72.2286 219.418 72.4386 219.628 72.7 219.782C72.966 219.936 73.2973 220.013 73.694 220.013C74.0066 220.013 74.2913 219.959 74.548 219.852C74.8046 219.745 75.024 219.586 75.206 219.376C75.388 219.161 75.528 218.891 75.626 218.564C75.724 218.237 75.773 217.857 75.773 217.423L76.592 217.675C76.592 218.403 76.459 219.031 76.193 219.558C75.9316 220.085 75.5606 220.491 75.08 220.776C74.604 221.056 74.0416 221.196 73.393 221.196ZM75.913 221V218.977H75.773V213.44H77.026V221H75.913ZM83.2069 221C82.7589 221.089 82.3155 221.124 81.8769 221.105C81.4429 221.091 81.0555 221.005 80.7149 220.846C80.3742 220.683 80.1152 220.431 79.9379 220.09C79.7885 219.791 79.7069 219.49 79.6929 219.187C79.6835 218.879 79.6789 218.531 79.6789 218.144V211.34H80.9249V218.088C80.9249 218.396 80.9272 218.66 80.9319 218.879C80.9412 219.098 80.9902 219.287 81.0789 219.446C81.2469 219.745 81.5129 219.92 81.8769 219.971C82.2455 220.022 82.6889 220.008 83.2069 219.929V221ZM78.1459 214.469V213.44H83.2069V214.469H78.1459ZM87.6473 221.21C86.8959 221.21 86.2473 221.04 85.7013 220.699C85.1599 220.358 84.7423 219.887 84.4483 219.285C84.1543 218.683 84.0073 217.992 84.0073 217.213C84.0073 216.42 84.1566 215.724 84.4553 215.127C84.7539 214.53 85.1763 214.065 85.7223 213.734C86.2683 213.398 86.9099 213.23 87.6473 213.23C88.4033 213.23 89.0543 213.4 89.6003 213.741C90.1463 214.077 90.5639 214.546 90.8533 215.148C91.1473 215.745 91.2943 216.434 91.2943 217.213C91.2943 218.002 91.1473 218.697 90.8533 219.299C90.5593 219.896 90.1393 220.365 89.5933 220.706C89.0473 221.042 88.3986 221.21 87.6473 221.21ZM87.6473 220.027C88.4313 220.027 89.0146 219.766 89.3973 219.243C89.7799 218.72 89.9713 218.044 89.9713 217.213C89.9713 216.359 89.7776 215.68 89.3903 215.176C89.0029 214.667 88.4219 214.413 87.6473 214.413C87.1199 214.413 86.6859 214.532 86.3453 214.77C86.0046 215.008 85.7503 215.337 85.5823 215.757C85.4143 216.177 85.3303 216.662 85.3303 217.213C85.3303 218.062 85.5263 218.744 85.9183 219.257C86.3103 219.77 86.8866 220.027 87.6473 220.027ZM101.872 221L101.879 216.163C101.879 215.598 101.728 215.157 101.424 214.84C101.126 214.518 100.736 214.357 100.255 214.357C99.9755 214.357 99.7095 214.422 99.4575 214.553C99.2055 214.679 99.0001 214.88 98.8415 215.155C98.6828 215.426 98.6035 215.773 98.6035 216.198L97.9455 215.932C97.9361 215.395 98.0458 214.926 98.2745 214.525C98.5078 214.119 98.8251 213.804 99.2265 213.58C99.6278 213.356 100.08 213.244 100.584 213.244C101.373 213.244 101.994 213.484 102.446 213.965C102.899 214.441 103.125 215.083 103.125 215.89L103.118 221H101.872ZM92.8285 221V213.44H93.9415V215.463H94.0815V221H92.8285ZM97.3575 221L97.3645 216.212C97.3645 215.633 97.2151 215.181 96.9165 214.854C96.6178 214.523 96.2211 214.357 95.7265 214.357C95.2365 214.357 94.8398 214.525 94.5365 214.861C94.2331 215.197 94.0815 215.643 94.0815 216.198L93.4235 215.806C93.4235 215.316 93.5401 214.877 93.7735 214.49C94.0068 214.103 94.3241 213.799 94.7255 213.58C95.1268 213.356 95.5818 213.244 96.0905 213.244C96.5991 213.244 97.0425 213.351 97.4205 213.566C97.7985 213.781 98.0901 214.089 98.2955 214.49C98.5008 214.887 98.6035 215.36 98.6035 215.911L98.5965 221H97.3575ZM107.098 221.21C106.533 221.21 106.059 221.107 105.677 220.902C105.299 220.692 105.012 220.417 104.816 220.076C104.624 219.735 104.529 219.362 104.529 218.956C104.529 218.559 104.603 218.216 104.753 217.927C104.907 217.633 105.121 217.39 105.397 217.199C105.672 217.003 106.001 216.849 106.384 216.737C106.743 216.639 107.144 216.555 107.588 216.485C108.036 216.41 108.488 216.343 108.946 216.282C109.403 216.221 109.83 216.163 110.227 216.107L109.779 216.366C109.793 215.694 109.657 215.197 109.373 214.875C109.093 214.553 108.607 214.392 107.917 214.392C107.459 214.392 107.058 214.497 106.713 214.707C106.372 214.912 106.132 215.248 105.992 215.715L104.809 215.358C104.991 214.695 105.343 214.175 105.866 213.797C106.388 213.419 107.077 213.23 107.931 213.23C108.617 213.23 109.205 213.354 109.695 213.601C110.189 213.844 110.544 214.212 110.759 214.707C110.866 214.94 110.934 215.195 110.962 215.47C110.99 215.741 111.004 216.025 111.004 216.324V221H109.898V219.187L110.157 219.355C109.872 219.966 109.473 220.428 108.96 220.741C108.451 221.054 107.83 221.21 107.098 221.21ZM107.287 220.167C107.735 220.167 108.122 220.088 108.449 219.929C108.78 219.766 109.046 219.553 109.247 219.292C109.447 219.026 109.578 218.737 109.639 218.424C109.709 218.191 109.746 217.932 109.751 217.647C109.76 217.358 109.765 217.136 109.765 216.982L110.199 217.171C109.793 217.227 109.394 217.281 109.002 217.332C108.61 217.383 108.239 217.439 107.889 217.5C107.539 217.556 107.224 217.624 106.944 217.703C106.738 217.768 106.545 217.852 106.363 217.955C106.185 218.058 106.041 218.191 105.929 218.354C105.821 218.513 105.768 218.711 105.768 218.949C105.768 219.154 105.819 219.35 105.922 219.537C106.029 219.724 106.192 219.875 106.412 219.992C106.636 220.109 106.927 220.167 107.287 220.167ZM117.045 221C116.597 221.089 116.153 221.124 115.715 221.105C115.281 221.091 114.893 221.005 114.553 220.846C114.212 220.683 113.953 220.431 113.776 220.09C113.626 219.791 113.545 219.49 113.531 219.187C113.521 218.879 113.517 218.531 113.517 218.144V211.34H114.763V218.088C114.763 218.396 114.765 218.66 114.77 218.879C114.779 219.098 114.828 219.287 114.917 219.446C115.085 219.745 115.351 219.92 115.715 219.971C116.083 220.022 116.527 220.008 117.045 219.929V221ZM111.984 214.469V213.44H117.045V214.469H111.984ZM118.72 212.103V210.815H119.966V212.103H118.72ZM118.72 221V213.44H119.966V221H118.72ZM125.286 221.21C124.535 221.21 123.886 221.04 123.34 220.699C122.799 220.358 122.381 219.887 122.087 219.285C121.793 218.683 121.646 217.992 121.646 217.213C121.646 216.42 121.795 215.724 122.094 215.127C122.393 214.53 122.815 214.065 123.361 213.734C123.907 213.398 124.549 213.23 125.286 213.23C126.042 213.23 126.693 213.4 127.239 213.741C127.785 214.077 128.203 214.546 128.492 215.148C128.786 215.745 128.933 216.434 128.933 217.213C128.933 218.002 128.786 218.697 128.492 219.299C128.198 219.896 127.778 220.365 127.232 220.706C126.686 221.042 126.037 221.21 125.286 221.21ZM125.286 220.027C126.07 220.027 126.653 219.766 127.036 219.243C127.419 218.72 127.61 218.044 127.61 217.213C127.61 216.359 127.416 215.68 127.029 215.176C126.642 214.667 126.061 214.413 125.286 214.413C124.759 214.413 124.325 214.532 123.984 214.77C123.643 215.008 123.389 215.337 123.221 215.757C123.053 216.177 122.969 216.662 122.969 217.213C122.969 218.062 123.165 218.744 123.557 219.257C123.949 219.77 124.525 220.027 125.286 220.027ZM135.857 221V217.213C135.857 216.854 135.824 216.508 135.759 216.177C135.698 215.846 135.589 215.549 135.43 215.288C135.276 215.022 135.066 214.812 134.8 214.658C134.539 214.504 134.207 214.427 133.806 214.427C133.493 214.427 133.209 214.481 132.952 214.588C132.7 214.691 132.483 214.849 132.301 215.064C132.119 215.279 131.977 215.549 131.874 215.876C131.776 216.198 131.727 216.578 131.727 217.017L130.908 216.765C130.908 216.032 131.039 215.405 131.3 214.882C131.566 214.355 131.937 213.951 132.413 213.671C132.894 213.386 133.458 213.244 134.107 213.244C134.597 213.244 135.015 213.321 135.36 213.475C135.705 213.629 135.992 213.834 136.221 214.091C136.45 214.343 136.629 214.628 136.76 214.945C136.891 215.258 136.982 215.577 137.033 215.904C137.089 216.226 137.117 216.532 137.117 216.821V221H135.857ZM130.467 221V213.44H131.587V215.463H131.727V221H130.467Z" fill="white"/>
<rect x="162.5" y="191.5" width="184" height="48" rx="11.5" fill="url(#paint2_radial_236_358)"/>
<rect x="162.5" y="191.5" width="184" height="48" rx="11.5" stroke="#262329"/>
<rect x="169" y="198" width="35" height="35" rx="6" fill="#282828"/>
<path fill-rule="evenodd" clip-rule="evenodd" d="M193.664 215.667C193.664 217.523 192.927 219.303 191.614 220.616C190.301 221.929 188.521 222.667 186.664 222.667C184.808 222.667 183.027 221.929 181.714 220.616C180.402 219.303 179.664 217.523 179.664 215.667C179.664 213.81 180.402 212.03 181.714 210.717C183.027 209.404 184.808 208.667 186.664 208.667C188.521 208.667 190.301 209.404 191.614 210.717C192.927 212.03 193.664 213.81 193.664 215.667ZM187.705 211.779C187.772 211.797 187.834 211.828 187.889 211.869C187.944 211.911 187.99 211.964 188.024 212.023C188.059 212.083 188.081 212.149 188.09 212.217C188.099 212.286 188.094 212.355 188.076 212.422L186.265 219.184C186.229 219.318 186.141 219.433 186.021 219.502C185.9 219.572 185.757 219.591 185.622 219.555C185.488 219.519 185.373 219.431 185.303 219.31C185.234 219.189 185.215 219.046 185.251 218.911L187.063 212.149C187.099 212.015 187.187 211.901 187.307 211.831C187.428 211.762 187.571 211.743 187.705 211.779ZM188.743 213.195C188.791 213.147 188.849 213.108 188.913 213.081C188.977 213.055 189.045 213.041 189.114 213.041C189.183 213.041 189.251 213.055 189.315 213.081C189.379 213.108 189.436 213.147 189.485 213.195L189.631 213.341C190.076 213.787 190.446 214.156 190.701 214.491C190.97 214.843 191.159 215.215 191.159 215.667C191.159 216.118 190.97 216.49 190.701 216.842C190.447 217.176 190.076 217.547 189.631 217.992L189.485 218.138C189.387 218.236 189.253 218.292 189.114 218.292C188.975 218.292 188.841 218.236 188.743 218.138C188.644 218.039 188.589 217.906 188.589 217.766C188.589 217.627 188.644 217.494 188.743 217.395L188.863 217.275C189.34 216.798 189.66 216.477 189.866 216.206C190.065 215.946 190.109 215.796 190.109 215.667C190.109 215.537 190.064 215.387 189.866 215.127C189.66 214.857 189.34 214.535 188.863 214.058L188.743 213.938C188.694 213.889 188.655 213.831 188.629 213.767C188.602 213.704 188.589 213.636 188.589 213.567C188.589 213.498 188.602 213.429 188.629 213.366C188.655 213.302 188.694 213.244 188.743 213.195ZM183.843 213.195C183.941 213.097 184.075 213.041 184.214 213.041C184.354 213.041 184.487 213.097 184.586 213.195C184.684 213.294 184.739 213.427 184.739 213.567C184.739 213.706 184.684 213.839 184.586 213.938L184.465 214.058C183.988 214.535 183.668 214.856 183.462 215.127C183.263 215.387 183.219 215.537 183.219 215.667C183.219 215.796 183.263 215.946 183.462 216.206C183.668 216.476 183.988 216.798 184.465 217.275L184.586 217.395C184.684 217.494 184.739 217.627 184.739 217.766C184.739 217.906 184.684 218.039 184.586 218.138C184.487 218.236 184.354 218.292 184.214 218.292C184.075 218.292 183.941 218.236 183.843 218.138L183.697 217.992C183.252 217.546 182.882 217.177 182.627 216.842C182.358 216.49 182.169 216.118 182.169 215.667C182.169 215.215 182.358 214.843 182.627 214.491C182.881 214.157 183.252 213.786 183.697 213.341L183.843 213.195Z" fill="white"/>
<path d="M213.024 220.5L210.364 210.7H211.862L213.85 218.862L216.132 210.7H217.686L219.898 218.89L221.914 210.7H223.412L220.71 220.5H219.072L216.874 212.702L214.62 220.5H213.024ZM227.201 220.668C226.529 220.668 225.931 220.514 225.409 220.206C224.886 219.898 224.475 219.469 224.177 218.918C223.887 218.367 223.743 217.728 223.743 217C223.743 216.253 223.887 215.605 224.177 215.054C224.475 214.494 224.886 214.06 225.409 213.752C225.931 213.435 226.538 213.276 227.229 213.276C227.919 213.276 228.512 213.43 229.007 213.738C229.501 214.046 229.884 214.457 230.155 214.97C230.425 215.474 230.561 216.034 230.561 216.65C230.561 216.743 230.556 216.846 230.547 216.958C230.547 217.061 230.542 217.177 230.533 217.308H224.765V216.314H229.161C229.133 215.726 228.937 215.269 228.573 214.942C228.209 214.606 227.756 214.438 227.215 214.438C226.832 214.438 226.482 214.527 226.165 214.704C225.847 214.872 225.591 215.124 225.395 215.46C225.208 215.787 225.115 216.202 225.115 216.706V217.098C225.115 217.621 225.208 218.064 225.395 218.428C225.591 218.783 225.847 219.053 226.165 219.24C226.482 219.417 226.827 219.506 227.201 219.506C227.649 219.506 228.017 219.408 228.307 219.212C228.596 219.016 228.811 218.75 228.951 218.414H230.351C230.229 218.843 230.024 219.231 229.735 219.576C229.445 219.912 229.086 220.178 228.657 220.374C228.237 220.57 227.751 220.668 227.201 220.668ZM235.966 220.668C235.583 220.668 235.233 220.612 234.916 220.5C234.608 220.397 234.337 220.253 234.104 220.066C233.871 219.879 233.675 219.665 233.516 219.422L233.376 220.5H232.116V210.42H233.516V214.55C233.74 214.195 234.053 213.897 234.454 213.654C234.865 213.402 235.369 213.276 235.966 213.276C236.638 213.276 237.231 213.439 237.744 213.766C238.257 214.083 238.654 214.522 238.934 215.082C239.223 215.633 239.368 216.267 239.368 216.986C239.368 217.686 239.223 218.316 238.934 218.876C238.654 219.436 238.257 219.875 237.744 220.192C237.231 220.509 236.638 220.668 235.966 220.668ZM235.742 219.45C236.171 219.45 236.549 219.347 236.876 219.142C237.212 218.937 237.473 218.647 237.66 218.274C237.856 217.901 237.954 217.467 237.954 216.972C237.954 216.477 237.856 216.048 237.66 215.684C237.473 215.311 237.212 215.021 236.876 214.816C236.549 214.601 236.171 214.494 235.742 214.494C235.303 214.494 234.916 214.601 234.58 214.816C234.253 215.021 233.997 215.311 233.81 215.684C233.623 216.048 233.53 216.477 233.53 216.972C233.53 217.467 233.623 217.901 233.81 218.274C233.997 218.647 234.253 218.937 234.58 219.142C234.916 219.347 235.303 219.45 235.742 219.45ZM244.655 220.5V210.7H247.665C248.803 210.7 249.746 210.901 250.493 211.302C251.239 211.703 251.79 212.273 252.145 213.01C252.509 213.738 252.691 214.606 252.691 215.614C252.691 216.622 252.509 217.49 252.145 218.218C251.79 218.946 251.239 219.511 250.493 219.912C249.755 220.304 248.813 220.5 247.665 220.5H244.655ZM246.055 219.324H247.609C248.514 219.324 249.233 219.175 249.765 218.876C250.297 218.577 250.675 218.153 250.899 217.602C251.132 217.042 251.249 216.379 251.249 215.614C251.249 214.839 251.132 214.172 250.899 213.612C250.675 213.052 250.297 212.623 249.765 212.324C249.233 212.025 248.514 211.876 247.609 211.876H246.055V219.324ZM257.498 220.668C256.826 220.668 256.228 220.514 255.706 220.206C255.183 219.898 254.772 219.469 254.474 218.918C254.184 218.367 254.04 217.728 254.04 217C254.04 216.253 254.184 215.605 254.474 215.054C254.772 214.494 255.183 214.06 255.706 213.752C256.228 213.435 256.835 213.276 257.526 213.276C258.216 213.276 258.809 213.43 259.304 213.738C259.798 214.046 260.181 214.457 260.452 214.97C260.722 215.474 260.858 216.034 260.858 216.65C260.858 216.743 260.853 216.846 260.844 216.958C260.844 217.061 260.839 217.177 260.83 217.308H255.062V216.314H259.458C259.43 215.726 259.234 215.269 258.87 214.942C258.506 214.606 258.053 214.438 257.512 214.438C257.129 214.438 256.779 214.527 256.462 214.704C256.144 214.872 255.888 215.124 255.692 215.46C255.505 215.787 255.412 216.202 255.412 216.706V217.098C255.412 217.621 255.505 218.064 255.692 218.428C255.888 218.783 256.144 219.053 256.462 219.24C256.779 219.417 257.124 219.506 257.498 219.506C257.946 219.506 258.314 219.408 258.604 219.212C258.893 219.016 259.108 218.75 259.248 218.414H260.648C260.526 218.843 260.321 219.231 260.032 219.576C259.742 219.912 259.383 220.178 258.954 220.374C258.534 220.57 258.048 220.668 257.498 220.668ZM264.142 220.5L261.496 213.444H262.966L264.968 219.156L266.984 213.444H268.426L265.794 220.5H264.142ZM272.537 220.668C271.865 220.668 271.267 220.514 270.745 220.206C270.222 219.898 269.811 219.469 269.513 218.918C269.223 218.367 269.079 217.728 269.079 217C269.079 216.253 269.223 215.605 269.513 215.054C269.811 214.494 270.222 214.06 270.745 213.752C271.267 213.435 271.874 213.276 272.565 213.276C273.255 213.276 273.848 213.43 274.343 213.738C274.837 214.046 275.22 214.457 275.491 214.97C275.761 215.474 275.897 216.034 275.897 216.65C275.897 216.743 275.892 216.846 275.883 216.958C275.883 217.061 275.878 217.177 275.869 217.308H270.101V216.314H274.497C274.469 215.726 274.273 215.269 273.909 214.942C273.545 214.606 273.092 214.438 272.551 214.438C272.168 214.438 271.818 214.527 271.501 214.704C271.183 214.872 270.927 215.124 270.731 215.46C270.544 215.787 270.451 216.202 270.451 216.706V217.098C270.451 217.621 270.544 218.064 270.731 218.428C270.927 218.783 271.183 219.053 271.501 219.24C271.818 219.417 272.163 219.506 272.537 219.506C272.985 219.506 273.353 219.408 273.643 219.212C273.932 219.016 274.147 218.75 274.287 218.414H275.687C275.565 218.843 275.36 219.231 275.071 219.576C274.781 219.912 274.422 220.178 273.993 220.374C273.573 220.57 273.087 220.668 272.537 220.668ZM277.452 220.5V210.42H278.852V220.5H277.452ZM283.994 220.668C283.332 220.668 282.734 220.514 282.202 220.206C281.68 219.898 281.264 219.469 280.956 218.918C280.658 218.358 280.508 217.714 280.508 216.986C280.508 216.239 280.662 215.591 280.97 215.04C281.278 214.48 281.698 214.046 282.23 213.738C282.762 213.43 283.36 213.276 284.022 213.276C284.694 213.276 285.292 213.43 285.814 213.738C286.337 214.046 286.748 214.475 287.046 215.026C287.354 215.577 287.508 216.225 287.508 216.972C287.508 217.719 287.354 218.367 287.046 218.918C286.748 219.469 286.332 219.898 285.8 220.206C285.268 220.514 284.666 220.668 283.994 220.668ZM283.994 219.464C284.377 219.464 284.722 219.371 285.03 219.184C285.348 218.997 285.6 218.722 285.786 218.358C285.982 217.985 286.08 217.523 286.08 216.972C286.08 216.421 285.987 215.964 285.8 215.6C285.614 215.227 285.362 214.947 285.044 214.76C284.736 214.573 284.396 214.48 284.022 214.48C283.649 214.48 283.304 214.573 282.986 214.76C282.669 214.947 282.412 215.227 282.216 215.6C282.03 215.964 281.936 216.421 281.936 216.972C281.936 217.523 282.03 217.985 282.216 218.358C282.412 218.722 282.664 218.997 282.972 219.184C283.29 219.371 283.63 219.464 283.994 219.464ZM289.155 223.58V213.444H290.415L290.555 214.536C290.704 214.321 290.891 214.121 291.115 213.934C291.339 213.738 291.605 213.579 291.913 213.458C292.23 213.337 292.599 213.276 293.019 213.276C293.691 213.276 294.279 213.439 294.783 213.766C295.296 214.093 295.693 214.536 295.973 215.096C296.262 215.647 296.407 216.277 296.407 216.986C296.407 217.695 296.262 218.33 295.973 218.89C295.684 219.441 295.282 219.875 294.769 220.192C294.265 220.509 293.677 220.668 293.005 220.668C292.454 220.668 291.969 220.561 291.549 220.346C291.129 220.122 290.798 219.814 290.555 219.422V223.58H289.155ZM292.781 219.45C293.21 219.45 293.588 219.347 293.915 219.142C294.251 218.937 294.512 218.647 294.699 218.274C294.895 217.901 294.993 217.467 294.993 216.972C294.993 216.477 294.895 216.048 294.699 215.684C294.512 215.311 294.251 215.021 293.915 214.816C293.588 214.601 293.21 214.494 292.781 214.494C292.342 214.494 291.955 214.601 291.619 214.816C291.292 215.021 291.036 215.311 290.849 215.684C290.662 216.048 290.569 216.477 290.569 216.972C290.569 217.467 290.662 217.901 290.849 218.274C291.036 218.647 291.292 218.937 291.619 219.142C291.955 219.347 292.342 219.45 292.781 219.45ZM298.042 220.5V213.444H299.302L299.4 214.438C299.624 214.074 299.923 213.789 300.296 213.584C300.669 213.379 301.089 213.276 301.556 213.276C301.911 213.276 302.233 213.327 302.522 213.43C302.811 213.523 303.068 213.668 303.292 213.864C303.516 214.06 303.698 214.303 303.838 214.592C304.09 214.181 304.426 213.859 304.846 213.626C305.275 213.393 305.728 213.276 306.204 213.276C306.773 213.276 307.263 213.393 307.674 213.626C308.085 213.85 308.397 214.191 308.612 214.648C308.827 215.096 308.934 215.656 308.934 216.328V220.5H307.548V216.468C307.548 215.815 307.413 215.32 307.142 214.984C306.881 214.648 306.493 214.48 305.98 214.48C305.635 214.48 305.327 214.569 305.056 214.746C304.785 214.923 304.571 215.18 304.412 215.516C304.263 215.852 304.188 216.263 304.188 216.748V220.5H302.788V216.468C302.788 215.815 302.653 215.32 302.382 214.984C302.121 214.648 301.733 214.48 301.22 214.48C300.893 214.48 300.595 214.569 300.324 214.746C300.053 214.923 299.839 215.18 299.68 215.516C299.521 215.852 299.442 216.263 299.442 216.748V220.5H298.042ZM313.935 220.668C313.263 220.668 312.666 220.514 312.143 220.206C311.62 219.898 311.21 219.469 310.911 218.918C310.622 218.367 310.477 217.728 310.477 217C310.477 216.253 310.622 215.605 310.911 215.054C311.21 214.494 311.62 214.06 312.143 213.752C312.666 213.435 313.272 213.276 313.963 213.276C314.654 213.276 315.246 213.43 315.741 213.738C316.236 214.046 316.618 214.457 316.889 214.97C317.16 215.474 317.295 216.034 317.295 216.65C317.295 216.743 317.29 216.846 317.281 216.958C317.281 217.061 317.276 217.177 317.267 217.308H311.499V216.314H315.895C315.867 215.726 315.671 215.269 315.307 214.942C314.943 214.606 314.49 214.438 313.949 214.438C313.566 214.438 313.216 214.527 312.899 214.704C312.582 214.872 312.325 215.124 312.129 215.46C311.942 215.787 311.849 216.202 311.849 216.706V217.098C311.849 217.621 311.942 218.064 312.129 218.428C312.325 218.783 312.582 219.053 312.899 219.24C313.216 219.417 313.562 219.506 313.935 219.506C314.383 219.506 314.752 219.408 315.041 219.212C315.33 219.016 315.545 218.75 315.685 218.414H317.085C316.964 218.843 316.758 219.231 316.469 219.576C316.18 219.912 315.82 220.178 315.391 220.374C314.971 220.57 314.486 220.668 313.935 220.668ZM318.85 220.5V213.444H320.11L320.194 214.648C320.418 214.228 320.736 213.897 321.146 213.654C321.557 213.402 322.028 213.276 322.56 213.276C323.12 213.276 323.601 213.388 324.002 213.612C324.404 213.836 324.716 214.177 324.94 214.634C325.164 215.082 325.276 215.647 325.276 216.328V220.5H323.876V216.468C323.876 215.815 323.732 215.32 323.442 214.984C323.153 214.648 322.733 214.48 322.182 214.48C321.818 214.48 321.492 214.569 321.202 214.746C320.913 214.914 320.68 215.166 320.502 215.502C320.334 215.838 320.25 216.249 320.25 216.734V220.5H318.85ZM329.979 220.5C329.531 220.5 329.144 220.43 328.817 220.29C328.491 220.15 328.239 219.917 328.061 219.59C327.884 219.263 327.795 218.82 327.795 218.26V214.634H326.577V213.444H327.795L327.963 211.68H329.195V213.444H331.197V214.634H329.195V218.274C329.195 218.675 329.279 218.951 329.447 219.1C329.615 219.24 329.905 219.31 330.315 219.31H331.127V220.5H329.979Z" fill="white"/>
</g>
<g clip-path="url(#clip1_236_358)">
<rect x="8.5" y="250.5" width="140" height="48" rx="11.5" fill="url(#paint3_radial_236_358)"/>
<rect x="8.5" y="250.5" width="140" height="48" rx="11.5" stroke="#262329"/>
<rect x="15" y="257" width="35" height="35" rx="6" fill="#282828"/>
<path d="M36.7931 281.666C37.1608 281.666 37.5248 281.593 37.8645 281.453C38.2041 281.312 38.5127 281.106 38.7727 280.846C39.0327 280.586 39.2389 280.277 39.3796 279.937C39.5203 279.598 39.5927 279.234 39.5927 278.866C39.5927 278.498 39.5203 278.134 39.3796 277.795C39.2389 277.455 39.0327 277.146 38.7727 276.886C38.5127 276.627 38.2041 276.42 37.8645 276.28C37.5248 276.139 37.1608 276.067 36.7931 276.067H36.6394L32.579 280.124C32.4955 280.204 32.429 280.3 32.3836 280.406C32.3381 280.513 32.3146 280.627 32.3145 280.743C32.3145 281.241 32.7176 281.667 33.2174 281.667H36.7939L36.7931 281.666ZM33.5635 269.737L32.8243 270.477C32.4983 270.804 32.315 271.246 32.3145 271.708V277.474C32.3145 278.213 32.3145 278.582 32.5337 278.67C32.7529 278.759 33.0083 278.491 33.5198 277.959L37.6062 273.696C38.1311 273.16 38.4216 272.437 38.4136 271.687C38.4057 270.936 38.1 270.22 37.5638 269.695C37.0276 269.17 36.3048 268.88 35.5544 268.888C34.8041 268.896 34.0884 269.201 33.5635 269.737Z" fill="white"/>
<path fill-rule="evenodd" clip-rule="evenodd" d="M31.2641 270.467V278.866C31.2641 279.234 31.1916 279.598 31.0509 279.938C30.9102 280.277 30.704 280.586 30.444 280.846C30.184 281.106 29.8753 281.312 29.5356 281.453C29.1959 281.594 28.8318 281.666 28.4641 281.666C28.0964 281.666 27.7323 281.594 27.3925 281.453C27.0528 281.312 26.7442 281.106 26.4842 280.846C26.2242 280.586 26.0179 280.277 25.8772 279.938C25.7365 279.598 25.6641 279.234 25.6641 278.866V270.467C25.6641 270.099 25.7365 269.735 25.8772 269.395C26.0179 269.055 26.2242 268.747 26.4842 268.487C26.7442 268.227 27.0528 268.02 27.3925 267.88C27.7323 267.739 28.0964 267.667 28.4641 267.667C28.8318 267.667 29.1959 267.739 29.5356 267.88C29.8753 268.02 30.184 268.227 30.444 268.487C30.704 268.747 30.9102 269.055 31.0509 269.395C31.1916 269.735 31.2641 270.099 31.2641 270.467ZM28.4636 279.566C28.6492 279.566 28.8272 279.492 28.9584 279.361C29.0896 279.23 29.1633 279.052 29.1633 278.866C29.1633 278.681 29.0896 278.503 28.9584 278.371C28.8272 278.24 28.6492 278.166 28.4636 278.166C28.2781 278.166 28.1001 278.24 27.9689 278.371C27.8377 278.503 27.764 278.681 27.764 278.866C27.764 279.052 27.8377 279.23 27.9689 279.361C28.1001 279.492 28.2781 279.566 28.4636 279.566Z" fill="white"/>
<path d="M59.129 280L56.21 269.92H57.512L59.752 277.893L61.985 269.927L63.294 269.92L65.534 277.893L67.767 269.92H69.076L66.157 280H64.911L62.643 272.097L60.375 280H59.129ZM72.7111 280.21C71.9691 280.21 71.3204 280.047 70.7651 279.72C70.2144 279.389 69.7851 278.929 69.4771 278.341C69.1691 277.748 69.0151 277.058 69.0151 276.269C69.0151 275.443 69.1667 274.729 69.4701 274.127C69.7734 273.52 70.1957 273.054 70.7371 272.727C71.2831 272.396 71.9224 272.23 72.6551 272.23C73.4157 272.23 74.0621 272.405 74.5941 272.755C75.1307 273.105 75.5321 273.604 75.7981 274.253C76.0687 274.902 76.1854 275.674 76.1481 276.57H74.8881V276.122C74.8741 275.193 74.6851 274.5 74.3211 274.043C73.9571 273.581 73.4157 273.35 72.6971 273.35C71.9271 273.35 71.3414 273.597 70.9401 274.092C70.5387 274.587 70.3381 275.296 70.3381 276.22C70.3381 277.111 70.5387 277.802 70.9401 278.292C71.3414 278.782 71.9131 279.027 72.6551 279.027C73.1544 279.027 73.5884 278.913 73.9571 278.684C74.3257 278.455 74.6151 278.126 74.8251 277.697L76.0221 278.11C75.7281 278.777 75.2847 279.295 74.6921 279.664C74.1041 280.028 73.4437 280.21 72.7111 280.21ZM69.9181 276.57V275.569H75.5041V276.57H69.9181ZM81.1786 280.21C80.4692 280.21 79.8719 280.035 79.3866 279.685C78.9012 279.33 78.5326 278.852 78.2806 278.25C78.0332 277.643 77.9096 276.964 77.9096 276.213C77.9096 275.452 78.0332 274.771 78.2806 274.169C78.5326 273.567 78.9012 273.093 79.3866 272.748C79.8766 272.403 80.4762 272.23 81.1856 272.23C81.8856 272.23 82.4876 272.405 82.9916 272.755C83.5002 273.1 83.8899 273.574 84.1606 274.176C84.4312 274.778 84.5666 275.457 84.5666 276.213C84.5666 276.969 84.4312 277.648 84.1606 278.25C83.8899 278.852 83.5002 279.33 82.9916 279.685C82.4876 280.035 81.8832 280.21 81.1786 280.21ZM77.6996 280V269.92H78.9526V274.435H78.8126V280H77.6996ZM81.0246 279.069C81.5239 279.069 81.9369 278.943 82.2636 278.691C82.5902 278.439 82.8352 278.098 82.9986 277.669C83.1619 277.235 83.2436 276.75 83.2436 276.213C83.2436 275.681 83.1619 275.2 82.9986 274.771C82.8399 274.342 82.5926 274.001 82.2566 273.749C81.9252 273.497 81.5029 273.371 80.9896 273.371C80.4996 273.371 80.0936 273.492 79.7716 273.735C79.4496 273.973 79.2092 274.307 79.0506 274.736C78.8919 275.161 78.8126 275.653 78.8126 276.213C78.8126 276.764 78.8896 277.256 79.0436 277.69C79.2022 278.119 79.4449 278.458 79.7716 278.705C80.0982 278.948 80.5159 279.069 81.0246 279.069ZM88.9038 280V269.92H92.0118C92.1145 269.92 92.2942 269.922 92.5508 269.927C92.8075 269.932 93.0525 269.95 93.2858 269.983C94.0652 270.086 94.7162 270.37 95.2388 270.837C95.7662 271.299 96.1628 271.887 96.4288 272.601C96.6948 273.315 96.8278 274.101 96.8278 274.96C96.8278 275.819 96.6948 276.605 96.4288 277.319C96.1628 278.033 95.7662 278.623 95.2388 279.09C94.7162 279.552 94.0652 279.834 93.2858 279.937C93.0525 279.965 92.8052 279.984 92.5438 279.993C92.2872 279.998 92.1098 280 92.0118 280H88.9038ZM90.1848 278.81H92.0118C92.1892 278.81 92.3875 278.805 92.6068 278.796C92.8262 278.782 93.0175 278.761 93.1808 278.733C93.7315 278.63 94.1772 278.399 94.5178 278.04C94.8585 277.681 95.1082 277.233 95.2668 276.696C95.4255 276.159 95.5048 275.581 95.5048 274.96C95.5048 274.325 95.4232 273.74 95.2598 273.203C95.1012 272.666 94.8515 272.221 94.5108 271.866C94.1702 271.511 93.7268 271.285 93.1808 271.187C93.0175 271.154 92.8238 271.133 92.5998 271.124C92.3758 271.115 92.1798 271.11 92.0118 271.11H90.1848V278.81ZM101.709 280.21C100.967 280.21 100.318 280.047 99.7631 279.72C99.2125 279.389 98.7831 278.929 98.4751 278.341C98.1671 277.748 98.0131 277.058 98.0131 276.269C98.0131 275.443 98.1648 274.729 98.4681 274.127C98.7715 273.52 99.1938 273.054 99.7351 272.727C100.281 272.396 100.92 272.23 101.653 272.23C102.414 272.23 103.06 272.405 103.592 272.755C104.129 273.105 104.53 273.604 104.796 274.253C105.067 274.902 105.183 275.674 105.146 276.57H103.886V276.122C103.872 275.193 103.683 274.5 103.319 274.043C102.955 273.581 102.414 273.35 101.695 273.35C100.925 273.35 100.339 273.597 99.9381 274.092C99.5368 274.587 99.3361 275.296 99.3361 276.22C99.3361 277.111 99.5368 277.802 99.9381 278.292C100.339 278.782 100.911 279.027 101.653 279.027C102.152 279.027 102.586 278.913 102.955 278.684C103.324 278.455 103.613 278.126 103.823 277.697L105.02 278.11C104.726 278.777 104.283 279.295 103.69 279.664C103.102 280.028 102.442 280.21 101.709 280.21ZM98.9161 276.57V275.569H104.502V276.57H98.9161ZM109.561 280.203C108.66 280.203 107.92 280.007 107.342 279.615C106.768 279.218 106.415 278.665 106.285 277.956L107.559 277.753C107.661 278.164 107.897 278.49 108.266 278.733C108.634 278.971 109.092 279.09 109.638 279.09C110.156 279.09 110.562 278.983 110.856 278.768C111.15 278.553 111.297 278.262 111.297 277.893C111.297 277.678 111.248 277.506 111.15 277.375C111.052 277.24 110.849 277.114 110.541 276.997C110.237 276.88 109.778 276.74 109.162 276.577C108.494 276.4 107.969 276.215 107.587 276.024C107.204 275.833 106.931 275.611 106.768 275.359C106.604 275.107 106.523 274.801 106.523 274.442C106.523 273.999 106.644 273.611 106.887 273.28C107.129 272.944 107.468 272.685 107.902 272.503C108.34 272.321 108.849 272.23 109.428 272.23C110.002 272.23 110.515 272.321 110.968 272.503C111.42 272.685 111.784 272.944 112.06 273.28C112.34 273.611 112.505 273.999 112.557 274.442L111.283 274.673C111.222 274.267 111.026 273.947 110.695 273.714C110.368 273.481 109.946 273.357 109.428 273.343C108.938 273.324 108.539 273.411 108.231 273.602C107.927 273.793 107.776 274.052 107.776 274.379C107.776 274.561 107.832 274.717 107.944 274.848C108.06 274.979 108.273 275.102 108.581 275.219C108.893 275.336 109.346 275.469 109.939 275.618C110.606 275.786 111.131 275.97 111.514 276.171C111.901 276.367 112.176 276.6 112.34 276.871C112.503 277.137 112.585 277.466 112.585 277.858C112.585 278.586 112.316 279.16 111.78 279.58C111.243 279.995 110.503 280.203 109.561 280.203ZM114.268 271.103V269.815H115.514V271.103H114.268ZM114.268 280V272.44H115.514V280H114.268ZM120.674 283.57C120.277 283.57 119.89 283.509 119.512 283.388C119.134 283.267 118.786 283.082 118.469 282.835C118.156 282.592 117.895 282.284 117.685 281.911L118.826 281.309C119.012 281.678 119.276 281.946 119.617 282.114C119.962 282.282 120.317 282.366 120.681 282.366C121.161 282.366 121.56 282.277 121.878 282.1C122.195 281.927 122.428 281.668 122.578 281.323C122.732 280.978 122.806 280.548 122.802 280.035V277.97H122.949V272.44H124.055V280.049C124.055 280.254 124.048 280.453 124.034 280.644C124.024 280.835 124.001 281.024 123.964 281.211C123.866 281.748 123.672 282.189 123.383 282.534C123.093 282.884 122.72 283.143 122.263 283.311C121.805 283.484 121.276 283.57 120.674 283.57ZM120.583 280.21C119.878 280.21 119.274 280.035 118.77 279.685C118.266 279.33 117.876 278.852 117.601 278.25C117.33 277.648 117.195 276.969 117.195 276.213C117.195 275.457 117.33 274.778 117.601 274.176C117.876 273.574 118.266 273.1 118.77 272.755C119.274 272.405 119.876 272.23 120.576 272.23C121.29 272.23 121.889 272.403 122.375 272.748C122.86 273.093 123.226 273.567 123.474 274.169C123.726 274.771 123.852 275.452 123.852 276.213C123.852 276.964 123.726 277.643 123.474 278.25C123.226 278.852 122.86 279.33 122.375 279.685C121.889 280.035 121.292 280.21 120.583 280.21ZM120.737 279.069C121.245 279.069 121.663 278.948 121.99 278.705C122.316 278.458 122.557 278.119 122.711 277.69C122.869 277.256 122.949 276.764 122.949 276.213C122.949 275.653 122.869 275.161 122.711 274.736C122.557 274.307 122.319 273.973 121.997 273.735C121.675 273.492 121.266 273.371 120.772 273.371C120.258 273.371 119.834 273.497 119.498 273.749C119.166 274.001 118.919 274.342 118.756 274.771C118.597 275.2 118.518 275.681 118.518 276.213C118.518 276.75 118.599 277.235 118.763 277.669C118.926 278.098 119.171 278.439 119.498 278.691C119.829 278.943 120.242 279.069 120.737 279.069ZM131.392 280V276.213C131.392 275.854 131.36 275.508 131.294 275.177C131.234 274.846 131.124 274.549 130.965 274.288C130.811 274.022 130.601 273.812 130.335 273.658C130.074 273.504 129.743 273.427 129.341 273.427C129.029 273.427 128.744 273.481 128.487 273.588C128.235 273.691 128.018 273.849 127.836 274.064C127.654 274.279 127.512 274.549 127.409 274.876C127.311 275.198 127.262 275.578 127.262 276.017L126.443 275.765C126.443 275.032 126.574 274.405 126.835 273.882C127.101 273.355 127.472 272.951 127.948 272.671C128.429 272.386 128.994 272.244 129.642 272.244C130.132 272.244 130.55 272.321 130.895 272.475C131.241 272.629 131.528 272.834 131.756 273.091C131.985 273.343 132.165 273.628 132.295 273.945C132.426 274.258 132.517 274.577 132.568 274.904C132.624 275.226 132.652 275.532 132.652 275.821V280H131.392ZM126.002 280V272.44H127.122V274.463H127.262V280H126.002Z" fill="white"/>
<rect x="157.5" y="250.5" width="169" height="48" rx="11.5" fill="url(#paint4_radial_236_358)"/>
<rect x="157.5" y="250.5" width="169" height="48" rx="11.5" stroke="#262329"/>
<rect x="164" y="257" width="35" height="35" rx="6" fill="#282828"/>
<path d="M174.228 268.168C173.772 268.624 173.516 269.243 173.516 269.887C173.516 270.532 173.772 271.151 174.228 271.607L175.567 272.946C175.577 272.934 175.587 272.923 175.598 272.911L178.971 269.538C178.982 269.527 178.994 269.517 179.006 269.507L177.667 268.168C177.211 267.712 176.592 267.456 175.947 267.456C175.302 267.456 174.684 267.712 174.228 268.168ZM179.898 270.399C179.888 270.41 179.877 270.422 179.866 270.433L176.493 273.806C176.482 273.817 176.47 273.827 176.458 273.837L184.545 281.924C185.003 282.369 185.618 282.616 186.257 282.611C186.896 282.607 187.507 282.351 187.959 281.899C188.411 281.447 188.666 280.836 188.671 280.197C188.676 279.558 188.429 278.943 187.983 278.485L179.897 270.399H179.898ZM184.564 266.872C184.593 266.795 184.645 266.729 184.713 266.683C184.781 266.636 184.861 266.611 184.943 266.611C185.025 266.611 185.106 266.636 185.173 266.683C185.241 266.729 185.293 266.795 185.323 266.872L185.685 267.795C185.726 267.901 185.81 267.984 185.915 268.025L186.836 268.39C187.18 268.526 187.18 269.015 186.836 269.151L185.915 269.515C185.863 269.536 185.815 269.567 185.776 269.606C185.736 269.646 185.705 269.694 185.685 269.746L185.322 270.67C185.292 270.746 185.24 270.812 185.172 270.859C185.105 270.905 185.024 270.93 184.942 270.93C184.86 270.93 184.78 270.905 184.712 270.859C184.644 270.812 184.592 270.746 184.563 270.67L184.2 269.746C184.18 269.694 184.149 269.646 184.11 269.606C184.07 269.567 184.023 269.536 183.971 269.515L183.05 269.151C182.974 269.12 182.909 269.068 182.863 269C182.817 268.932 182.792 268.852 182.792 268.77C182.792 268.688 182.817 268.608 182.863 268.54C182.909 268.473 182.974 268.42 183.05 268.39L183.971 268.025C184.023 268.005 184.07 267.974 184.11 267.934C184.149 267.894 184.18 267.847 184.2 267.795L184.564 266.872ZM187.826 272.625C187.855 272.549 187.907 272.483 187.975 272.437C188.043 272.391 188.123 272.366 188.205 272.366C188.286 272.366 188.366 272.391 188.434 272.437C188.502 272.483 188.554 272.549 188.584 272.625L188.715 272.962C188.736 273.014 188.767 273.061 188.807 273.101C188.847 273.14 188.894 273.171 188.946 273.192L189.281 273.325C189.625 273.461 189.625 273.95 189.281 274.086L188.946 274.219C188.894 274.24 188.847 274.271 188.807 274.31C188.767 274.35 188.737 274.398 188.716 274.45L188.584 274.787C188.554 274.863 188.502 274.929 188.434 274.976C188.366 275.022 188.286 275.047 188.204 275.047C188.122 275.047 188.042 275.022 187.974 274.976C187.906 274.929 187.854 274.863 187.825 274.787L187.693 274.45C187.673 274.398 187.642 274.35 187.602 274.311C187.563 274.271 187.515 274.24 187.463 274.219L187.127 274.086C187.051 274.056 186.986 274.003 186.94 273.936C186.894 273.868 186.87 273.788 186.87 273.706C186.87 273.624 186.894 273.544 186.94 273.476C186.986 273.408 187.051 273.356 187.127 273.325L187.463 273.192C187.515 273.171 187.562 273.14 187.602 273.101C187.641 273.061 187.672 273.014 187.693 272.962L187.826 272.625ZM175.315 277.835C175.344 277.758 175.396 277.693 175.464 277.646C175.532 277.6 175.612 277.575 175.694 277.575C175.776 277.575 175.857 277.6 175.924 277.646C175.992 277.693 176.044 277.758 176.074 277.835L176.205 278.172C176.226 278.224 176.257 278.271 176.296 278.311C176.336 278.351 176.383 278.381 176.435 278.402L176.77 278.535C177.114 278.671 177.114 279.16 176.77 279.296L176.435 279.429C176.383 279.45 176.336 279.481 176.296 279.521C176.257 279.56 176.226 279.608 176.205 279.66L176.074 279.997C176.044 280.073 175.992 280.139 175.924 280.186C175.857 280.232 175.776 280.257 175.694 280.257C175.612 280.257 175.532 280.232 175.464 280.186C175.396 280.139 175.344 280.073 175.315 279.997L175.182 279.66C175.162 279.608 175.131 279.56 175.091 279.521C175.052 279.481 175.004 279.45 174.952 279.429L174.616 279.297C174.54 279.267 174.475 279.215 174.428 279.147C174.382 279.079 174.358 278.999 174.358 278.916C174.358 278.834 174.382 278.754 174.428 278.686C174.475 278.618 174.54 278.566 174.616 278.535L174.952 278.402C175.004 278.381 175.052 278.35 175.091 278.311C175.131 278.271 175.162 278.224 175.182 278.172L175.315 277.835Z" fill="white"/>
<path d="M210.061 280.21C209.37 280.21 208.74 280.089 208.171 279.846C207.602 279.603 207.112 279.256 206.701 278.803C206.29 278.346 205.973 277.795 205.749 277.151C205.53 276.502 205.42 275.772 205.42 274.96C205.42 273.887 205.611 272.958 205.994 272.174C206.377 271.39 206.916 270.786 207.611 270.361C208.306 269.932 209.123 269.717 210.061 269.717C211.19 269.717 212.1 269.981 212.791 270.508C213.482 271.031 213.958 271.747 214.219 272.657L212.959 272.916C212.749 272.305 212.404 271.817 211.923 271.453C211.442 271.089 210.843 270.907 210.124 270.907C209.373 270.902 208.747 271.07 208.248 271.411C207.753 271.747 207.38 272.221 207.128 272.832C206.876 273.443 206.748 274.153 206.743 274.96C206.738 275.763 206.862 276.467 207.114 277.074C207.366 277.681 207.742 278.157 208.241 278.502C208.745 278.843 209.373 279.015 210.124 279.02C210.773 279.025 211.319 278.901 211.762 278.649C212.205 278.397 212.548 278.033 212.791 277.557C213.034 277.081 213.181 276.509 213.232 275.842H211.09V274.813H214.548C214.562 274.906 214.569 275.018 214.569 275.149C214.574 275.275 214.576 275.361 214.576 275.408C214.576 276.327 214.403 277.151 214.058 277.879C213.717 278.602 213.211 279.172 212.539 279.587C211.872 280.002 211.046 280.21 210.061 280.21ZM215.974 280V272.44H217.087V274.267L216.905 274.029C216.994 273.796 217.108 273.581 217.248 273.385C217.393 273.189 217.554 273.028 217.731 272.902C217.927 272.743 218.149 272.622 218.396 272.538C218.643 272.454 218.895 272.405 219.152 272.391C219.409 272.372 219.649 272.389 219.873 272.44V273.609C219.612 273.539 219.325 273.52 219.012 273.553C218.699 273.586 218.41 273.7 218.144 273.896C217.901 274.069 217.712 274.279 217.577 274.526C217.446 274.773 217.355 275.042 217.304 275.331C217.253 275.616 217.227 275.907 217.227 276.206V280H215.974ZM223.1 280.21C222.535 280.21 222.061 280.107 221.679 279.902C221.301 279.692 221.014 279.417 220.818 279.076C220.626 278.735 220.531 278.362 220.531 277.956C220.531 277.559 220.605 277.216 220.755 276.927C220.909 276.633 221.123 276.39 221.399 276.199C221.674 276.003 222.003 275.849 222.386 275.737C222.745 275.639 223.146 275.555 223.59 275.485C224.038 275.41 224.49 275.343 224.948 275.282C225.405 275.221 225.832 275.163 226.229 275.107L225.781 275.366C225.795 274.694 225.659 274.197 225.375 273.875C225.095 273.553 224.609 273.392 223.919 273.392C223.461 273.392 223.06 273.497 222.715 273.707C222.374 273.912 222.134 274.248 221.994 274.715L220.811 274.358C220.993 273.695 221.345 273.175 221.868 272.797C222.39 272.419 223.079 272.23 223.933 272.23C224.619 272.23 225.207 272.354 225.697 272.601C226.191 272.844 226.546 273.212 226.761 273.707C226.868 273.94 226.936 274.195 226.964 274.47C226.992 274.741 227.006 275.025 227.006 275.324V280H225.9V278.187L226.159 278.355C225.874 278.966 225.475 279.428 224.962 279.741C224.453 280.054 223.832 280.21 223.1 280.21ZM223.289 279.167C223.737 279.167 224.124 279.088 224.451 278.929C224.782 278.766 225.048 278.553 225.249 278.292C225.449 278.026 225.58 277.737 225.641 277.424C225.711 277.191 225.748 276.932 225.753 276.647C225.762 276.358 225.767 276.136 225.767 275.982L226.201 276.171C225.795 276.227 225.396 276.281 225.004 276.332C224.612 276.383 224.241 276.439 223.891 276.5C223.541 276.556 223.226 276.624 222.946 276.703C222.74 276.768 222.547 276.852 222.365 276.955C222.187 277.058 222.043 277.191 221.931 277.354C221.823 277.513 221.77 277.711 221.77 277.949C221.77 278.154 221.821 278.35 221.924 278.537C222.031 278.724 222.194 278.875 222.414 278.992C222.638 279.109 222.929 279.167 223.289 279.167ZM232.298 280.21C231.588 280.21 230.991 280.035 230.506 279.685C230.02 279.33 229.652 278.852 229.4 278.25C229.152 277.643 229.029 276.964 229.029 276.213C229.029 275.452 229.152 274.771 229.4 274.169C229.652 273.567 230.02 273.093 230.506 272.748C230.996 272.403 231.595 272.23 232.305 272.23C233.005 272.23 233.607 272.405 234.111 272.755C234.619 273.1 235.009 273.574 235.28 274.176C235.55 274.778 235.686 275.457 235.686 276.213C235.686 276.969 235.55 277.648 235.28 278.25C235.009 278.852 234.619 279.33 234.111 279.685C233.607 280.035 233.002 280.21 232.298 280.21ZM228.819 283.36V272.44H229.932V278.005H230.072V283.36H228.819ZM232.144 279.069C232.643 279.069 233.056 278.943 233.383 278.691C233.709 278.439 233.954 278.098 234.118 277.669C234.281 277.235 234.363 276.75 234.363 276.213C234.363 275.681 234.281 275.2 234.118 274.771C233.959 274.342 233.712 274.001 233.376 273.749C233.044 273.497 232.622 273.371 232.109 273.371C231.619 273.371 231.213 273.492 230.891 273.735C230.569 273.973 230.328 274.307 230.17 274.736C230.011 275.161 229.932 275.653 229.932 276.213C229.932 276.764 230.009 277.256 230.163 277.69C230.321 278.119 230.564 278.458 230.891 278.705C231.217 278.948 231.635 279.069 232.144 279.069ZM242.603 280V276.213C242.603 275.854 242.571 275.508 242.505 275.177C242.445 274.846 242.335 274.549 242.176 274.288C242.022 274.022 241.812 273.812 241.546 273.658C241.285 273.504 240.954 273.427 240.552 273.427C240.24 273.427 239.955 273.481 239.698 273.588C239.446 273.691 239.229 273.849 239.047 274.064C238.865 274.279 238.723 274.549 238.62 274.876C238.522 275.198 238.473 275.578 238.473 276.017L237.654 275.765C237.654 275.032 237.785 274.405 238.046 273.882C238.312 273.355 238.683 272.951 239.159 272.671C239.64 272.386 240.205 272.244 240.853 272.244C241.343 272.244 241.761 272.321 242.106 272.475C242.452 272.629 242.739 272.834 242.967 273.091C243.196 273.343 243.376 273.628 243.506 273.945C243.637 274.258 243.728 274.577 243.779 274.904C243.835 275.226 243.863 275.532 243.863 275.821V280H242.603ZM237.213 280V269.92H238.333V275.485H238.473V280H237.213ZM245.823 271.103V269.815H247.069V271.103H245.823ZM245.823 280V272.44H247.069V280H245.823ZM252.354 280.21C251.589 280.21 250.938 280.04 250.401 279.699C249.869 279.354 249.463 278.88 249.183 278.278C248.903 277.676 248.759 276.99 248.749 276.22C248.759 275.431 248.906 274.738 249.19 274.141C249.48 273.539 249.893 273.07 250.429 272.734C250.966 272.398 251.612 272.23 252.368 272.23C253.166 272.23 253.852 272.426 254.426 272.818C255.005 273.21 255.392 273.747 255.588 274.428L254.356 274.799C254.198 274.36 253.939 274.02 253.579 273.777C253.225 273.534 252.816 273.413 252.354 273.413C251.836 273.413 251.409 273.534 251.073 273.777C250.737 274.015 250.488 274.346 250.324 274.771C250.161 275.191 250.077 275.674 250.072 276.22C250.082 277.06 250.275 277.739 250.653 278.257C251.036 278.77 251.603 279.027 252.354 279.027C252.849 279.027 253.26 278.915 253.586 278.691C253.913 278.462 254.16 278.133 254.328 277.704L255.588 278.033C255.327 278.738 254.919 279.277 254.363 279.65C253.808 280.023 253.138 280.21 252.354 280.21ZM259.873 280.203C258.972 280.203 258.233 280.007 257.654 279.615C257.08 279.218 256.728 278.665 256.597 277.956L257.871 277.753C257.974 278.164 258.209 278.49 258.578 278.733C258.947 278.971 259.404 279.09 259.95 279.09C260.468 279.09 260.874 278.983 261.168 278.768C261.462 278.553 261.609 278.262 261.609 277.893C261.609 277.678 261.56 277.506 261.462 277.375C261.364 277.24 261.161 277.114 260.853 276.997C260.55 276.88 260.09 276.74 259.474 276.577C258.807 276.4 258.282 276.215 257.899 276.024C257.516 275.833 257.243 275.611 257.08 275.359C256.917 275.107 256.835 274.801 256.835 274.442C256.835 273.999 256.956 273.611 257.199 273.28C257.442 272.944 257.78 272.685 258.214 272.503C258.653 272.321 259.161 272.23 259.74 272.23C260.314 272.23 260.827 272.321 261.28 272.503C261.733 272.685 262.097 272.944 262.372 273.28C262.652 273.611 262.818 273.999 262.869 274.442L261.595 274.673C261.534 274.267 261.338 273.947 261.007 273.714C260.68 273.481 260.258 273.357 259.74 273.343C259.25 273.324 258.851 273.411 258.543 273.602C258.24 273.793 258.088 274.052 258.088 274.379C258.088 274.561 258.144 274.717 258.256 274.848C258.373 274.979 258.585 275.102 258.893 275.219C259.206 275.336 259.658 275.469 260.251 275.618C260.918 275.786 261.443 275.97 261.826 276.171C262.213 276.367 262.489 276.6 262.652 276.871C262.815 277.137 262.897 277.466 262.897 277.858C262.897 278.586 262.629 279.16 262.092 279.58C261.555 279.995 260.816 280.203 259.873 280.203ZM267.244 280V269.92H270.352C270.454 269.92 270.634 269.922 270.891 269.927C271.147 269.932 271.392 269.95 271.626 269.983C272.405 270.086 273.056 270.37 273.579 270.837C274.106 271.299 274.503 271.887 274.769 272.601C275.035 273.315 275.168 274.101 275.168 274.96C275.168 275.819 275.035 276.605 274.769 277.319C274.503 278.033 274.106 278.623 273.579 279.09C273.056 279.552 272.405 279.834 271.626 279.937C271.392 279.965 271.145 279.984 270.884 279.993C270.627 279.998 270.45 280 270.352 280H267.244ZM268.525 278.81H270.352C270.529 278.81 270.727 278.805 270.947 278.796C271.166 278.782 271.357 278.761 271.521 278.733C272.071 278.63 272.517 278.399 272.858 278.04C273.198 277.681 273.448 277.233 273.607 276.696C273.765 276.159 273.845 275.581 273.845 274.96C273.845 274.325 273.763 273.74 273.6 273.203C273.441 272.666 273.191 272.221 272.851 271.866C272.51 271.511 272.067 271.285 271.521 271.187C271.357 271.154 271.164 271.133 270.94 271.124C270.716 271.115 270.52 271.11 270.352 271.11H268.525V278.81ZM280.049 280.21C279.307 280.21 278.658 280.047 278.103 279.72C277.552 279.389 277.123 278.929 276.815 278.341C276.507 277.748 276.353 277.058 276.353 276.269C276.353 275.443 276.505 274.729 276.808 274.127C277.111 273.52 277.534 273.054 278.075 272.727C278.621 272.396 279.26 272.23 279.993 272.23C280.754 272.23 281.4 272.405 281.932 272.755C282.469 273.105 282.87 273.604 283.136 274.253C283.407 274.902 283.523 275.674 283.486 276.57H282.226V276.122C282.212 275.193 282.023 274.5 281.659 274.043C281.295 273.581 280.754 273.35 280.035 273.35C279.265 273.35 278.679 273.597 278.278 274.092C277.877 274.587 277.676 275.296 277.676 276.22C277.676 277.111 277.877 277.802 278.278 278.292C278.679 278.782 279.251 279.027 279.993 279.027C280.492 279.027 280.926 278.913 281.295 278.684C281.664 278.455 281.953 278.126 282.163 277.697L283.36 278.11C283.066 278.777 282.623 279.295 282.03 279.664C281.442 280.028 280.782 280.21 280.049 280.21ZM277.256 276.57V275.569H282.842V276.57H277.256ZM287.9 280.203C287 280.203 286.26 280.007 285.681 279.615C285.107 279.218 284.755 278.665 284.624 277.956L285.898 277.753C286.001 278.164 286.237 278.49 286.605 278.733C286.974 278.971 287.431 279.09 287.977 279.09C288.495 279.09 288.901 278.983 289.195 278.768C289.489 278.553 289.636 278.262 289.636 277.893C289.636 277.678 289.587 277.506 289.489 277.375C289.391 277.24 289.188 277.114 288.88 276.997C288.577 276.88 288.117 276.74 287.501 276.577C286.834 276.4 286.309 276.215 285.926 276.024C285.544 275.833 285.271 275.611 285.107 275.359C284.944 275.107 284.862 274.801 284.862 274.442C284.862 273.999 284.984 273.611 285.226 273.28C285.469 272.944 285.807 272.685 286.241 272.503C286.68 272.321 287.189 272.23 287.767 272.23C288.341 272.23 288.855 272.321 289.307 272.503C289.76 272.685 290.124 272.944 290.399 273.28C290.679 273.611 290.845 273.999 290.896 274.442L289.622 274.673C289.562 274.267 289.366 273.947 289.034 273.714C288.708 273.481 288.285 273.357 287.767 273.343C287.277 273.324 286.878 273.411 286.57 273.602C286.267 273.793 286.115 274.052 286.115 274.379C286.115 274.561 286.171 274.717 286.283 274.848C286.4 274.979 286.612 275.102 286.92 275.219C287.233 275.336 287.686 275.469 288.278 275.618C288.946 275.786 289.471 275.97 289.853 276.171C290.241 276.367 290.516 276.6 290.679 276.871C290.843 277.137 290.924 277.466 290.924 277.858C290.924 278.586 290.656 279.16 290.119 279.58C289.583 279.995 288.843 280.203 287.9 280.203ZM292.608 271.103V269.815H293.854V271.103H292.608ZM292.608 280V272.44H293.854V280H292.608ZM299.014 283.57C298.617 283.57 298.23 283.509 297.852 283.388C297.474 283.267 297.126 283.082 296.809 282.835C296.496 282.592 296.235 282.284 296.025 281.911L297.166 281.309C297.352 281.678 297.616 281.946 297.957 282.114C298.302 282.282 298.657 282.366 299.021 282.366C299.501 282.366 299.9 282.277 300.218 282.1C300.535 281.927 300.768 281.668 300.918 281.323C301.072 280.978 301.146 280.548 301.142 280.035V277.97H301.289V272.44H302.395V280.049C302.395 280.254 302.388 280.453 302.374 280.644C302.364 280.835 302.341 281.024 302.304 281.211C302.206 281.748 302.012 282.189 301.723 282.534C301.433 282.884 301.06 283.143 300.603 283.311C300.145 283.484 299.616 283.57 299.014 283.57ZM298.923 280.21C298.218 280.21 297.614 280.035 297.11 279.685C296.606 279.33 296.216 278.852 295.941 278.25C295.67 277.648 295.535 276.969 295.535 276.213C295.535 275.457 295.67 274.778 295.941 274.176C296.216 273.574 296.606 273.1 297.11 272.755C297.614 272.405 298.216 272.23 298.916 272.23C299.63 272.23 300.229 272.403 300.715 272.748C301.2 273.093 301.566 273.567 301.814 274.169C302.066 274.771 302.192 275.452 302.192 276.213C302.192 276.964 302.066 277.643 301.814 278.25C301.566 278.852 301.2 279.33 300.715 279.685C300.229 280.035 299.632 280.21 298.923 280.21ZM299.077 279.069C299.585 279.069 300.003 278.948 300.33 278.705C300.656 278.458 300.897 278.119 301.051 277.69C301.209 277.256 301.289 276.764 301.289 276.213C301.289 275.653 301.209 275.161 301.051 274.736C300.897 274.307 300.659 273.973 300.337 273.735C300.015 273.492 299.606 273.371 299.112 273.371C298.598 273.371 298.174 273.497 297.838 273.749C297.506 274.001 297.259 274.342 297.096 274.771C296.937 275.2 296.858 275.681 296.858 276.213C296.858 276.75 296.939 277.235 297.103 277.669C297.266 278.098 297.511 278.439 297.838 278.691C298.169 278.943 298.582 279.069 299.077 279.069ZM309.732 280V276.213C309.732 275.854 309.699 275.508 309.634 275.177C309.573 274.846 309.464 274.549 309.305 274.288C309.151 274.022 308.941 273.812 308.675 273.658C308.414 273.504 308.082 273.427 307.681 273.427C307.368 273.427 307.084 273.481 306.827 273.588C306.575 273.691 306.358 273.849 306.176 274.064C305.994 274.279 305.852 274.549 305.749 274.876C305.651 275.198 305.602 275.578 305.602 276.017L304.783 275.765C304.783 275.032 304.914 274.405 305.175 273.882C305.441 273.355 305.812 272.951 306.288 272.671C306.769 272.386 307.333 272.244 307.982 272.244C308.472 272.244 308.89 272.321 309.235 272.475C309.58 272.629 309.867 272.834 310.096 273.091C310.325 273.343 310.504 273.628 310.635 273.945C310.766 274.258 310.857 274.577 310.908 274.904C310.964 275.226 310.992 275.532 310.992 275.821V280H309.732ZM304.342 280V272.44H305.462V274.463H305.602V280H304.342Z" fill="white"/>
</g>
<g clip-path="url(#clip2_236_358)">
<path d="M166.611 110.524C133.73 110.524 106.708 134.128 103.605 164.313H136.226C138.081 164.313 139.571 165.82 139.797 167.655C141.495 180.817 152.762 191 166.403 191C180.044 191 191.31 180.817 193.009 167.655C193.251 165.82 194.725 164.313 196.579 164.313H229.616C226.531 134.128 199.509 110.524 166.611 110.524Z" fill="url(#paint5_linear_236_358)" fill-opacity="0.1"/>
<path d="M166.611 113.121C198.538 113.121 224.936 135.375 229.287 164.313H229.616C226.531 134.128 199.509 110.524 166.611 110.524C133.713 110.524 106.708 134.128 103.605 164.313H103.935C108.268 135.392 134.666 113.121 166.611 113.121Z" fill="url(#paint6_linear_236_358)" fill-opacity="0.1"/>
<path d="M308.983 159.655C308.931 159.014 308.844 158.39 308.758 157.75C303.939 123.962 287.057 92.9112 261.231 70.3459C235.162 47.5555 201.692 35 166.992 35C132.291 35 98.8387 47.5555 72.7527 70.3459C46.9266 92.9112 30.0617 123.962 25.2431 157.75C25.1565 158.39 25.0871 159.014 25.0178 159.655C24.9138 160.763 25.2951 161.854 26.0751 162.72C27.2537 164.001 29.3164 164.746 31.743 164.746H74.7633C85.0591 164.746 93.9682 156.503 97.4521 148.363C109.394 120.533 136.677 102.54 166.974 102.54C197.272 102.54 224.572 120.516 236.497 148.363C239.981 156.503 248.907 164.746 259.186 164.746H302.206C304.633 164.746 306.695 164.001 307.874 162.72C308.654 161.854 309.035 160.78 308.931 159.655H308.983Z" fill="url(#paint7_linear_236_358)" fill-opacity="0.5"/>
<path d="M305.742 158.183C301.027 125.105 284.509 94.7296 259.238 72.6492C233.706 50.3437 200.947 38.048 166.992 38.048C133.037 38.048 100.295 50.3264 74.7633 72.6492C49.4919 94.7296 32.9736 125.105 28.2591 158.183C28.1724 158.771 28.1031 159.343 28.0511 159.932C27.9644 160.901 29.6457 161.681 31.743 161.681H74.7633C83.2044 161.681 91.3336 154.909 94.6442 147.151C106.673 119.113 134.527 99.4747 166.974 99.4747C199.422 99.4747 227.293 119.113 239.305 147.151C242.633 154.892 250.762 161.681 259.186 161.681H302.206C304.321 161.681 305.985 160.901 305.898 159.932C305.846 159.343 305.777 158.771 305.69 158.183H305.742Z" fill="url(#paint8_radial_236_358)"/>
<path d="M166.992 56.7513C106.708 56.7513 56.6329 102.055 46.5625 161.681H53.2183C61.1915 106.021 109.082 63.2456 166.992 63.2456C224.901 63.2456 272.792 106.038 280.765 161.681H287.421C277.35 102.055 227.276 56.7513 166.992 56.7513Z" fill="url(#paint9_linear_236_358)" fill-opacity="0.5"/>
<path d="M166.992 56.7513C225.386 56.7513 274.196 99.2495 286.364 156.104C273.832 96.9636 225.456 54.9329 166.992 54.9329C108.528 54.9329 55.8703 100.756 46.5625 161.681C56.6329 102.055 106.708 56.7513 166.992 56.7513Z" fill="url(#paint10_linear_236_358)" fill-opacity="0.5"/>
<path d="M272.879 133.401C273.676 135.305 274.439 137.228 275.15 139.185C274.439 137.228 273.694 135.305 272.879 133.401Z" fill="#FA7300"/>
<path d="M94.6618 147.151C106.691 119.113 134.545 99.4747 166.992 99.4747C199.439 99.4747 227.311 119.113 239.322 147.151C242.65 154.892 250.779 161.681 259.203 161.681H280.765C272.792 106.021 224.901 63.2456 166.992 63.2456C109.083 63.2456 61.1919 106.021 53.2188 161.681H74.7809C83.222 161.681 91.3512 154.909 94.6618 147.151Z" fill="url(#paint11_linear_236_358)"/>
<path d="M166.992 63.228C157.39 63.228 148.082 64.423 139.173 66.6397C141.235 78.6064 143.194 90.5904 144.962 102.609C151.947 100.583 159.348 99.4745 166.992 99.4745C190.929 99.4745 212.352 110.16 226.791 127.027C233.932 116.983 241.108 106.973 248.353 96.9807C227.553 76.1472 198.798 63.228 166.992 63.228Z" fill="url(#paint12_linear_236_358)"/>
<path d="M58.332 140.605C55.992 147.359 54.2587 154.407 53.2188 161.664H74.7809C81.2981 161.664 87.6246 157.611 91.6978 152.191C80.5874 148.294 69.425 144.536 58.332 140.605Z" fill="url(#paint13_linear_236_358)"/>
<path d="M100.174 84.685C107.488 94.2791 114.369 104.254 121.424 114.039C133.99 105.103 149.295 99.7516 165.848 99.5091V63.2627C141.357 63.5051 118.72 71.4194 100.174 84.685Z" fill="url(#paint14_linear_236_358)"/>
<path d="M275.687 140.657C267.957 118.248 253.484 98.9726 234.695 85.2568L213.133 114.403C224.573 122.698 233.707 133.99 239.34 147.151C240.172 149.073 241.281 150.926 242.633 152.641C244.159 151.862 272.671 141.8 275.705 140.657H275.687Z" fill="url(#paint15_linear_236_358)"/>
<path d="M275.687 140.657C272.636 141.817 244.21 151.844 242.633 152.641C246.723 157.836 252.877 161.681 259.22 161.681H280.783C279.743 154.442 278.009 147.411 275.687 140.674V140.657Z" fill="url(#paint16_linear_236_358)"/>
<path style="mix-blend-mode:multiply" d="M166.611 77.7407C216.096 77.7407 257.054 114.195 264.074 161.681H280.765C272.792 106.021 224.901 63.2456 166.992 63.2456C109.083 63.2456 61.1919 106.021 53.2188 161.681H69.1477C76.1675 114.195 117.125 77.7407 166.611 77.7407Z" fill="url(#paint17_radial_236_358)"/>
<path d="M239.149 146.129C227.12 118.091 198.85 98.9725 166.992 98.9725C135.134 98.9725 107.089 118.542 95.043 145.61C93.3617 149.385 90.2417 153.818 86.8271 157.472C90.2071 154.979 92.963 151.255 94.5923 147.463C106.621 119.425 134.545 100.237 166.992 100.237C199.439 100.237 226.86 118.836 238.872 146.874C240.484 150.649 243.343 154.494 246.827 157.126C243.569 153.541 240.726 149.818 239.149 146.147V146.129Z" fill="url(#paint18_linear_236_358)" fill-opacity="0.8"/>
<path d="M161.558 157.806C167.654 154.439 233.713 129.758 234.809 131.727C235.854 133.596 179.848 176.494 173.759 179.845C167.663 183.212 159.994 181.003 156.637 174.915C153.28 168.828 155.469 161.157 161.558 157.806Z" fill="url(#paint19_linear_236_358)" fill-opacity="0.5"/>
<path d="M164.703 163.476C167.649 161.852 171.373 162.907 173.009 165.875C174.646 168.843 173.584 172.541 170.615 174.175C167.669 175.799 163.945 174.744 162.309 171.776C160.681 168.831 161.735 165.11 164.703 163.476Z" fill="url(#paint20_linear_236_358)" fill-opacity="0.5"/>
<path d="M166.026 165.869C167.662 164.968 169.713 165.561 170.616 167.196C171.518 168.832 170.926 170.881 169.29 171.782C167.655 172.683 165.604 172.09 164.701 170.455C163.799 168.819 164.391 166.77 166.026 165.869Z" fill="#CCD8FF"/>
<path d="M234.809 131.727C234.396 130.992 224.786 134.024 212.624 138.268L217.318 147.057C227.434 138.98 235.181 132.424 234.793 131.72L234.809 131.727Z" fill="url(#paint21_linear_236_358)"/>
</g>
<path d="M335 320L335 260L1.00001 260L1 320L335 320Z" fill="url(#paint22_linear_236_358)"/>
<defs>
<linearGradient id="paint0_linear_236_358" x1="167" y1="-47.2721" x2="165.321" y2="245.99" gradientUnits="userSpaceOnUse">
<stop stop-color="#B5D3FD" stop-opacity="0"/>
<stop offset="0.457113" stop-color="#B5D3FD"/>
<stop offset="0.757594" stop-color="#B5D3FD" stop-opacity="0"/>
</linearGradient>
<radialGradient id="paint1_radial_236_358" cx="0" cy="0" r="1" gradientUnits="userSpaceOnUse" gradientTransform="translate(40.5 238.897) scale(296.235 53.7873)">
<stop offset="0.3741" stop-color="#312739" stop-opacity="0"/>
<stop offset="0.6927" stop-color="#312739" stop-opacity="0.616"/>
<stop offset="1" stop-color="#131313" stop-opacity="0.4"/>
</radialGradient>
<radialGradient id="paint2_radial_236_358" cx="0" cy="0" r="1" gradientUnits="userSpaceOnUse" gradientTransform="translate(254.5 238.897) scale(243.571 53.7873)">
<stop offset="0.3741" stop-color="#312739" stop-opacity="0"/>
<stop offset="0.6927" stop-color="#312739" stop-opacity="0.616"/>
<stop offset="1" stop-color="#131313" stop-opacity="0.4"/>
</radialGradient>
<radialGradient id="paint3_radial_236_358" cx="0" cy="0" r="1" gradientUnits="userSpaceOnUse" gradientTransform="translate(78.5 297.897) scale(185.641 53.7873)">
<stop offset="0.3741" stop-color="#312739" stop-opacity="0"/>
<stop offset="0.6927" stop-color="#312739" stop-opacity="0.616"/>
<stop offset="1" stop-color="#131313" stop-opacity="0.4"/>
</radialGradient>
<radialGradient id="paint4_radial_236_358" cx="0" cy="0" r="1" gradientUnits="userSpaceOnUse" gradientTransform="translate(242 297.897) scale(223.822 53.7873)">
<stop offset="0.3741" stop-color="#312739" stop-opacity="0"/>
<stop offset="0.6927" stop-color="#312739" stop-opacity="0.616"/>
<stop offset="1" stop-color="#131313" stop-opacity="0.4"/>
</radialGradient>
<linearGradient id="paint5_linear_236_358" x1="166.611" y1="110.524" x2="166.611" y2="191" gradientUnits="userSpaceOnUse">
<stop stop-color="#6182FE"/>
<stop offset="1" stop-color="#6182FE" stop-opacity="0"/>
</linearGradient>
<linearGradient id="paint6_linear_236_358" x1="166.611" y1="110.524" x2="166.611" y2="164.313" gradientUnits="userSpaceOnUse">
<stop stop-color="#6182FE"/>
<stop offset="1" stop-color="#6182FE" stop-opacity="0"/>
</linearGradient>
<linearGradient id="paint7_linear_236_358" x1="166.992" y1="-39.5" x2="166.992" y2="164.746" gradientUnits="userSpaceOnUse">
<stop stop-color="#6182FE"/>
<stop offset="0.838844" stop-color="#6182FE" stop-opacity="0.0298643"/>
<stop offset="1" stop-color="#6182FE" stop-opacity="0"/>
</linearGradient>
<radialGradient id="paint8_radial_236_358" cx="0" cy="0" r="1" gradientUnits="userSpaceOnUse" gradientTransform="translate(166.974 158.899) scale(365.822 135.712)">
<stop offset="0.3741" stop-color="#312739" stop-opacity="0"/>
<stop offset="0.6927" stop-color="#312739" stop-opacity="0.616"/>
<stop offset="1" stop-color="#131313" stop-opacity="0.4"/>
</radialGradient>
<linearGradient id="paint9_linear_236_358" x1="166.992" y1="56.7513" x2="166.992" y2="161.681" gradientUnits="userSpaceOnUse">
<stop stop-color="#6182FE"/>
<stop offset="1" stop-color="#6182FE" stop-opacity="0"/>
</linearGradient>
<linearGradient id="paint10_linear_236_358" x1="166.463" y1="54.9329" x2="166.463" y2="161.681" gradientUnits="userSpaceOnUse">
<stop stop-color="#6182FE"/>
<stop offset="1" stop-color="#6182FE" stop-opacity="0"/>
</linearGradient>
<linearGradient id="paint11_linear_236_358" x1="80.3794" y1="162.512" x2="132.159" y2="142.982" gradientUnits="userSpaceOnUse">
<stop stop-color="#002CCC"/>
<stop offset="1" stop-color="#002CCC"/>
</linearGradient>
<linearGradient id="paint12_linear_236_358" x1="166.49" y1="83.5247" x2="222.328" y2="100.367" gradientUnits="userSpaceOnUse">
<stop offset="0.04" stop-color="#335FFF"/>
<stop offset="1" stop-color="#335FFF"/>
</linearGradient>
<linearGradient id="paint13_linear_236_358" x1="69.945" y1="160.919" x2="74.635" y2="147.478" gradientUnits="userSpaceOnUse">
<stop stop-color="#002199"/>
<stop offset="1" stop-color="#002199"/>
</linearGradient>
<linearGradient id="paint14_linear_236_358" x1="100.174" y1="88.6508" x2="165.848" y2="88.6508" gradientUnits="userSpaceOnUse">
<stop stop-color="#0037FF"/>
<stop offset="1" stop-color="#0037FF"/>
</linearGradient>
<linearGradient id="paint15_linear_236_358" x1="261.925" y1="142.06" x2="223.602" y2="101.693" gradientUnits="userSpaceOnUse">
<stop offset="0.09" stop-color="#6687FF"/>
<stop offset="1" stop-color="#6687FF"/>
</linearGradient>
<linearGradient id="paint16_linear_236_358" x1="261.708" y1="140.657" x2="261.708" y2="161.681" gradientUnits="userSpaceOnUse">
<stop stop-color="#99AFFF"/>
<stop offset="1" stop-color="#99AFFF"/>
</linearGradient>
<radialGradient id="paint17_radial_236_358" cx="0" cy="0" r="1" gradientUnits="userSpaceOnUse" gradientTransform="translate(167.262 178.374) scale(114.39 114.291)">
<stop offset="0.95" stop-color="white"/>
<stop offset="1" stop-color="#999999"/>
</radialGradient>
<linearGradient id="paint18_linear_236_358" x1="166.827" y1="98.9725" x2="166.827" y2="157.472" gradientUnits="userSpaceOnUse">
<stop stop-color="#6182FE"/>
<stop offset="1" stop-color="#6182FE" stop-opacity="0"/>
</linearGradient>
<linearGradient id="paint19_linear_236_358" x1="208.001" y1="119.733" x2="177.897" y2="187.186" gradientUnits="userSpaceOnUse">
<stop stop-color="#6182FE"/>
<stop offset="1" stop-color="#6182FE" stop-opacity="0"/>
</linearGradient>
<linearGradient id="paint20_linear_236_358" x1="170.152" y1="163.246" x2="165.171" y2="174.407" gradientUnits="userSpaceOnUse">
<stop stop-color="#6182FE"/>
<stop offset="1" stop-color="#6182FE" stop-opacity="0"/>
</linearGradient>
<linearGradient id="paint21_linear_236_358" x1="214.443" y1="134.191" x2="230.55" y2="141.38" gradientUnits="userSpaceOnUse">
<stop stop-color="#FACC15"/>
<stop offset="0.5" stop-color="#EC4899"/>
<stop offset="1" stop-color="#6B21A8"/>
</linearGradient>
<linearGradient id="paint22_linear_236_358" x1="168" y1="260" x2="168" y2="320" gradientUnits="userSpaceOnUse">
<stop stop-color="#101010" stop-opacity="0"/>
<stop offset="1" stop-color="#0D0D0D"/>
</linearGradient>
<clipPath id="clip0_236_358">
<rect width="334" height="49" fill="white" transform="translate(1 191)"/>
</clipPath>
<clipPath id="clip1_236_358">
<rect width="334" height="49" fill="white" transform="translate(1 250)"/>
</clipPath>
<clipPath id="clip2_236_358">
<rect width="284" height="156" fill="white" transform="translate(25 35)"/>
</clipPath>
</defs>
</svg>
